<svg xmlns="http://www.w3.org/2000/svg" viewBox="0 0 680 420" width="100%">
  <title>Собака мордой вниз — карта мышц</title>
  <style>
    .label { font: 500 13px sans-serif; fill: #94a3b8; text-anchor: middle; }
    .bg { fill: #1e2330; }
    .inactive { fill: #2d3748; stroke: #3d4a5c; stroke-width: 0.5; }
    .primary { fill: #e85d04; stroke: #c44b00; stroke-width: 0.5; }
    .secondary { fill: #6ee7b7; stroke: #4dbb93; stroke-width: 0.5; }
  </style>

  <!-- Front body -->
  <text x="170" y="30" class="label">Вид спереди</text>
  <!-- Head -->
  <ellipse cx="170" cy="65" rx="28" ry="32" class="inactive"/>
  <!-- Neck -->
  <rect x="158" y="94" width="24" height="18" rx="4" class="inactive"/>
  <!-- Chest -->
  <rect x="130" y="112" width="80" height="55" rx="6" class="inactive"/>
  <!-- Left shoulder -->
  <ellipse cx="118" cy="130" rx="18" ry="22" class="inactive"/>
  <!-- Right shoulder -->
  <ellipse cx="222" cy="130" rx="18" ry="22" class="inactive"/>
  <!-- Left bicep -->
  <rect x="98" y="152" width="22" height="50" rx="8" class="inactive"/>
  <!-- Right bicep -->
  <rect x="220" y="152" width="22" height="50" rx="8" class="inactive"/>
  <!-- Left forearm -->
  <rect x="100" y="205" width="18" height="45" rx="7" class="inactive"/>
  <!-- Right forearm -->
  <rect x="222" y="205" width="18" height="45" rx="7" class="inactive"/>
  <!-- Abs -->
  <rect x="148" y="167" width="44" height="65" rx="5" class="inactive"/>
  <!-- Left oblique -->
  <rect x="130" y="172" width="20" height="50" rx="5" class="inactive"/>
  <!-- Right oblique -->
  <rect x="190" y="172" width="20" height="50" rx="5" class="inactive"/>
  <!-- Hip flexors -->
  <rect x="140" y="232" width="38" height="25" rx="5" class="inactive"/>
  <!-- Left quad -->
  <rect x="128" y="257" width="38" height="80" rx="8" class="inactive"/>
  <!-- Right quad -->
  <rect x="174" y="257" width="38" height="80" rx="8" class="inactive"/>
  <!-- Left adductor -->
  <rect x="137" y="260" width="18" height="70" rx="6" class="inactive"/>
  <!-- Right adductor -->
  <rect x="185" y="260" width="18" height="70" rx="6" class="inactive"/>
  <!-- Left knee -->
  <ellipse cx="147" cy="342" rx="18" ry="12" class="inactive"/>
  <!-- Right knee -->
  <ellipse cx="193" cy="342" rx="18" ry="12" class="inactive"/>
  <!-- Left calf -->
  <rect x="132" y="354" width="30" height="55" rx="8" class="primary"/>
  <!-- Right calf -->
  <rect x="178" y="354" width="30" height="55" rx="8" class="primary"/>

  <!-- Back body -->
  <text x="510" y="30" class="label">Вид сзади</text>
  <!-- Head -->
  <ellipse cx="510" cy="65" rx="28" ry="32" class="inactive"/>
  <!-- Neck -->
  <rect x="498" y="94" width="24" height="18" rx="4" class="inactive"/>
  <!-- Traps -->
  <rect x="468" y="112" width="84" height="30" rx="6" class="inactive"/>
  <!-- Lats left -->
  <rect x="460" y="140" width="34" height="65" rx="6" class="secondary"/>
  <!-- Lats right -->
  <rect x="556" y="140" width="34" height="65" rx="6" class="secondary"/>
  <!-- Lower back -->
  <rect x="484" y="175" width="42" height="45" rx="5" class="secondary"/>
  <!-- Left rear delt -->
  <ellipse cx="456" cy="130" rx="18" ry="22" class="inactive"/>
  <!-- Right rear delt -->
  <ellipse cx="564" cy="130" rx="18" ry="22" class="inactive"/>
  <!-- Left tricep -->
  <rect x="436" y="152" width="22" height="50" rx="8" class="inactive"/>
  <!-- Right tricep -->
  <rect x="562" y="152" width="22" height="50" rx="8" class="inactive"/>
  <!-- Left forearm back -->
  <rect x="438" y="205" width="18" height="45" rx="7" class="inactive"/>
  <!-- Right forearm back -->
  <rect x="564" y="205" width="18" height="45" rx="7" class="inactive"/>
  <!-- Glutes -->
  <rect x="476" y="220" width="58" height="52" rx="8" class="inactive"/>
  <!-- Left hamstring -->
  <rect x="468" y="272" width="38" height="75" rx="8" class="primary"/>
  <!-- Right hamstring -->
  <rect x="514" y="272" width="38" height="75" rx="8" class="primary"/>
  <!-- Left abductor -->
  <rect x="460" y="260" width="18" height="65" rx="6" class="inactive"/>
  <!-- Right abductor -->
  <rect x="542" y="260" width="18" height="65" rx="6" class="inactive"/>
  <!-- Left knee back -->
  <ellipse cx="487" cy="350" rx="18" ry="12" class="inactive"/>
  <!-- Right knee back -->
  <ellipse cx="533" cy="350" rx="18" ry="12" class="inactive"/>
  <!-- Left calf back -->
  <rect x="472" y="362" width="30" height="50" rx="8" class="inactive"/>
  <!-- Right calf back -->
  <rect x="518" y="362" width="30" height="50" rx="8" class="inactive"/>

  <!-- Legend -->
  <rect x="270" y="370" width="14" height="14" rx="3" class="primary"/>
  <text x="290" y="382" class="label" style="text-anchor:start">Основные</text>
  <rect x="370" y="370" width="14" height="14" rx="3" class="secondary"/>
  <text x="390" y="382" class="label" style="text-anchor:start">Вспомогательные</text>

</svg>